<svg xmlns="http://www.w3.org/2000/svg" viewBox="0 0 32 32"><path fill="#1572b6" d="M5.902 28.286L3.273 2.286h25.454l-2.629 26-10.1 2.857z"/><path fill="#33a9dc" d="M16 27.429l8.184-2.314 2.25-22.857H16z"/><path fill="#fff" d="M16 13.143h-4.143l-.286-3.143H16V7.143H8.857l.071.857.729 8.143H16zm0 7.286l-.014.004-3.5-.943-.224-2.5H8.929l.314 3.571 6.743 1.857.014-.004zm0-5.857v2.286h-3.286l-.093-1.071-.071-.786z"/><path fill="#ebebeb" d="M16 13.143v2.286h3.786l-.357 4.071L16 20.429v2.286l6.743-1.857.047-.529.771-8.571.071-.857H16zm0-6v2.286h7.143l.071-.857.071-.857z"/></svg>
