<svg xmlns="http://www.w3.org/2000/svg" viewBox="0 0 32 32"><g><circle cx="16" cy="16" r="16" fill="#181717"/><path fill="#fff" d="M16 6.4c-5.3 0-9.6 4.3-9.6 9.6 0 4.2 2.7 7.7 6.5 8.9.5.1.7-.2.7-.5v-1.7c-2.7.6-3.3-1.1-3.3-1.1-.4-1-1-1.3-1-1.3-.8-.6.1-.6.1-.6.9.1 1.4.9 1.4.9.8 1.4 2.1 1 2.6.8.1-.6.3-1 .5-1.2-2.2-.2-4.5-1.1-4.5-4.8 0-1.1.4-2 1-2.7-.1-.2-.4-1.1.1-2.2 0 0 .8-.3 2.7 1 .8-.2 1.7-.3 2.5-.3s1.7.1 2.5.3c1.9-1.3 2.7-1 2.7-1 .5 1.1.2 2 .1 2.2.6.7 1 1.6 1 2.7 0 3.7-2.3 4.6-4.5 4.8.3.3.6.8.6 1.7v2.5c0 .3.2.6.7.5 3.8-1.2 6.5-4.7 6.5-8.9 0-5.3-4.3-9.6-9.6-9.6z"/></g></svg>
