<svg xmlns="http://www.w3.org/2000/svg" viewBox="0 0 32 32"><rect width="32" height="32" rx="6" fill="#f7df1e"/><path d="M21.5 24.5c.7 1.1 1.6 2 3.3 2 1.4 0 2.3-.7 2.3-1.7 0-1.2-1-1.6-2.6-2.3l-.9-.4c-2.6-1.1-4.3-2.4-4.3-5.2 0-2.6 2-4.6 5.1-4.6 2.2 0 3.8.8 4.9 2.8l-2.7 1.7c-.6-1.1-1.2-1.5-2.2-1.5-.9 0-1.5.6-1.5 1.5 0 1.1.6 1.5 2 2.1l.9.4c3 1.3 4.7 2.5 4.7 5.4 0 3.1-2.4 4.8-5.6 4.8-3.1 0-5.1-1.5-6.1-3.5zm-11.2.3c.5.9 1 1.7 2.1 1.7 1.1 0 1.8-.4 1.8-2V14.2h3.2v10.3c0 3.3-2 4.8-4.8 4.8-2.6 0-4.1-1.3-4.9-2.9z" fill="#222"/></svg>
